<?xml version="1.0" standalone="no"?>
<!DOCTYPE svg PUBLIC "-//W3C//DTD SVG 20010904//EN"
 "http://www.w3.org/TR/2001/REC-SVG-20010904/DTD/svg10.dtd">
<svg version="1.0" xmlns="http://www.w3.org/2000/svg"
 width="1903.000000pt" height="1605.000000pt" viewBox="0 0 1903.000000 1605.000000"
 preserveAspectRatio="xMidYMid meet">

<g transform="translate(0.000000,1605.000000) scale(0.100000,-0.100000)"
fill="#000000" stroke="none">
<path d="M6829 9703 c-87 -165 -381 -716 -386 -725 -2 -5 105 -8 239 -8 l243
1 110 206 c61 114 130 246 155 293 25 47 76 142 113 211 37 69 67 129 67 133
0 3 -108 6 -239 6 l-240 0 -62 -117z"/>
<path d="M8234 9788 c-33 -65 -127 -244 -154 -293 -15 -27 -49 -90 -75 -140
-26 -49 -60 -112 -75 -140 -15 -27 -50 -94 -79 -147 l-52 -98 244 0 243 0 27
53 c26 52 79 152 171 322 127 235 246 462 246 469 0 3 -108 6 -240 6 l-239 0
-17 -32z"/>
<path d="M7391 9298 c-19 -35 -70 -130 -114 -213 -43 -82 -99 -186 -122 -230
-23 -44 -74 -138 -112 -210 -39 -71 -92 -170 -118 -220 -26 -49 -97 -182 -158
-295 -111 -207 -151 -284 -247 -465 -29 -55 -63 -118 -75 -140 -12 -22 -54
-102 -95 -177 l-73 -137 -91 124 c-50 68 -129 176 -176 240 -47 64 -137 187
-201 274 -226 306 -269 366 -269 377 0 11 67 100 347 464 70 91 176 229 236
308 l108 142 -312 -2 -312 -3 -48 -70 c-170 -249 -355 -521 -424 -622 l-80
-117 -5 404 -5 405 -267 3 -268 2 0 -975 0 -975 270 0 270 0 2 446 3 445 125
-190 c69 -105 200 -305 293 -446 l167 -255 608 0 608 0 87 168 c48 92 123 237
168 322 44 85 119 229 166 320 155 299 215 414 268 515 29 55 78 148 109 207
31 59 56 112 56 117 0 9 -89 181 -226 436 -23 44 -47 81 -51 82 -5 2 -24 -25
-42 -59z"/>
<path d="M9445 9164 c-63 -7 -195 -35 -245 -51 -177 -59 -301 -157 -365 -287
-40 -82 -55 -149 -55 -251 0 -160 45 -273 149 -375 79 -77 155 -118 356 -189
219 -77 223 -79 286 -112 105 -56 143 -121 120 -206 -23 -86 -93 -133 -230
-154 -149 -23 -422 16 -592 85 -35 14 -64 24 -65 23 -1 -1 -5 -91 -9 -199 l-7
-198 27 -10 c106 -40 406 -80 606 -80 377 0 640 120 754 345 41 82 55 149 55
270 0 183 -36 282 -139 386 -83 82 -171 126 -421 209 -273 91 -342 131 -356
206 -17 92 30 157 143 195 135 46 429 26 607 -42 28 -10 51 -17 53 -15 6 5 20
369 15 382 -3 11 -95 33 -222 54 -69 12 -397 21 -465 14z"/>
<path d="M10390 8915 l0 -225 295 0 295 0 0 -750 0 -750 270 0 270 0 0 750 0
750 300 0 300 0 -2 223 -3 222 -862 3 -863 2 0 -225z"/>
<path d="M12395 9128 c-3 -7 -4 -445 -3 -973 l3 -960 678 -3 677 -2 0 225 0
225 -410 0 -410 0 0 750 0 750 -265 0 c-203 0 -267 -3 -270 -12z"/>
<path d="M14017 9133 c-4 -3 -7 -442 -7 -975 l0 -968 270 0 270 0 0 975 0 975
-263 0 c-145 0 -267 -3 -270 -7z"/>
<path d="M7906 8377 c-77 -145 -266 -505 -266 -510 0 -2 74 -156 165 -341
l165 -336 310 0 c170 0 310 2 310 6 0 3 -89 172 -199 377 -109 205 -256 480
-326 612 -70 132 -128 241 -129 242 -1 1 -14 -21 -30 -50z"/>
</g>
</svg>
